<svg width="359" height="300" fill="none" xmlns="http://www.w3.org/2000/svg">
  <path fill="#222" d="M0 0h359v300H0z"/>
  <path d="M179 187a37 37 0 100-74 37 37 0 000 74z" fill="#FAFAFA" fill-opacity=".1"/>
  <path d="M192.28 165.75h-29.03a1.75 1.75 0 01-1.75-1.75v-24.5a1.75 1.75 0 011.75-1.75h1.03l-3.84-3.84 2.47-2.47 34.65 34.65-2.47 2.47-2.81-2.81zm-21.06-21.05a10.5 10.5 0 0014.83 14.83l-2.48-2.48a7 7 0 01-9.87-9.88l-2.48-2.47zm25.28 15.42l-7.08-7.08a10.49 10.49 0 00-11.71-11.71l-5.53-5.52 1.57-1.56h10.5l3.5 3.5h7a1.75 1.75 0 011.75 1.75v20.63zm-14.86-14.86a7.03 7.03 0 013.85 3.85l-3.85-3.85z" fill="#fff"/>
</svg>
